<svg width="750" height="1334" xmlns="http://www.w3.org/2000/svg">
  <!-- 背景 -->
  <rect width="100%" height="100%" fill="#f5f5f5" opacity="0.3"/>
  
  <!-- 远山 -->
  <path d="M0,900 Q150,800 300,850 Q450,900 600,850 Q750,800 750,900 L750,1334 L0,1334 Z" fill="#333" opacity="0.1"/>
  
  <!-- 近山 -->
  <path d="M0,950 Q100,900 200,930 Q300,960 400,930 Q500,900 600,930 Q700,960 750,940 L750,1334 L0,1334 Z" fill="#222" opacity="0.15"/>
  
  <!-- 水面 -->
  <path d="M0,1000 Q187.5,980 375,1000 Q562.5,1020 750,1000 L750,1334 L0,1334 Z" fill="#111" opacity="0.05"/>
  
  <!-- 小船 -->
  <path d="M500,1050 Q520,1040 540,1050 L550,1070 L490,1070 Z" fill="#222" opacity="0.6"/>
  
  <!-- 房屋 -->
  <path d="M150,1000 L200,950 L250,1000 L250,1050 L150,1050 Z" fill="#333" opacity="0.7"/>
  <rect x="170" y="1020" width="20" height="30" fill="#111" opacity="0.5"/>
  <rect x="210" y="1020" width="20" height="30" fill="#111" opacity="0.5"/>
  
  <!-- 树木 -->
  <path d="M300,950 Q310,930 320,950 L320,1000 L300,1000 Z" fill="#222" opacity="0.6"/>
  <ellipse cx="310" cy="930" rx="15" ry="25" fill="#222" opacity="0.4"/>
  
  <!-- 飞鸟 -->
  <path d="M400,900 Q410,890 420,900 Q430,890 440,900" fill="none" stroke="#333" stroke-width="2" opacity="0.5"/>
  <path d="M600,850 Q610,840 620,850 Q630,840 640,850" fill="none" stroke="#333" stroke-width="2" opacity="0.5"/>
  
  <!-- 装饰云纹 -->
  <path d="M50,800 Q70,790 90,800 Q110,810 130,800" fill="none" stroke="#333" stroke-width="3" opacity="0.2"/>
  <path d="M550,750 Q570,740 590,750 Q610,760 630,750" fill="none" stroke="#333" stroke-width="3" opacity="0.2"/>
</svg>